<svg width="58" height="58" viewBox="0 0 58 58" fill="none" xmlns="http://www.w3.org/2000/svg">
<path d="M34.8342 32.0953C33.7072 31.4293 32.6175 30.6415 31.5878 29.7459C33.1253 28.0755 34.4627 26.7665 35.3725 25.9116C36.507 25.9373 37.5969 25.5072 38.3895 24.7145C40.006 23.0985 40.006 20.4677 38.3895 18.8511C36.7738 17.2345 34.1426 17.2345 32.5259 18.8511C31.82 19.5564 31.4009 20.4829 31.3284 21.4799C30.0577 22.6663 28.7682 23.9639 27.4874 25.3418C26.9554 24.6525 26.4434 23.9361 25.9605 23.2065C26.2728 21.8193 25.8622 20.3672 24.8631 19.3679C23.2469 17.7517 20.6172 17.7517 18.9997 19.3679C17.3829 20.9846 17.3829 23.6151 18.9997 25.2318C19.494 25.7252 20.1138 26.0854 20.7997 26.2773C21.6285 27.5552 22.5312 28.7932 23.488 29.9603C22.8451 30.7596 22.182 31.6188 21.4708 32.5743C20.6345 32.7276 19.8857 33.1163 19.2964 33.706C17.6797 35.3225 17.6797 37.9537 19.2964 39.5684C20.9115 41.185 23.5436 41.185 25.1589 39.5684C26.0795 38.6473 26.512 37.3536 26.3334 36.0693C26.7764 35.4767 27.2299 34.888 27.6915 34.305C28.9671 35.4062 30.3359 36.3912 31.7686 37.238C31.9611 37.9287 32.3211 38.5509 32.8204 39.0509C34.437 40.6664 37.0672 40.6664 38.6847 39.0509C40.3004 37.4332 40.3004 34.8041 38.6847 33.1864C37.6824 32.1865 36.2232 31.7768 34.8342 32.0953ZM34.4228 21.1756C34.9181 20.7688 35.6518 20.804 36.088 21.3404C36.5034 21.8458 36.43 22.5933 35.9299 23.0037C35.908 23.0223 33.5541 24.9638 30.3046 28.4889C29.7507 27.9331 29.2035 27.3563 28.6775 26.75C31.9622 23.1952 34.3189 21.2595 34.4228 21.1756ZM23.2125 37.326C22.839 37.8623 22.0994 37.9958 21.5641 37.6242C21.0197 37.2507 20.8986 36.5068 21.2653 35.9771C22.3494 34.4139 23.512 32.8562 24.7295 31.3368C25.2834 31.9483 25.8193 32.5008 26.3946 33.0514C25.2807 34.4501 24.2105 35.8866 23.2125 37.326ZM37.1395 36.4944C36.8956 37.1023 36.2061 37.3975 35.6001 37.1556C32.6966 35.9935 29.891 34.071 27.2578 31.4389C23.2643 27.4445 21.0462 23.1676 20.9533 22.9875C20.6545 22.4078 20.8852 21.6929 21.4653 21.3943C21.925 21.1585 22.479 21.2442 22.8447 21.609C22.9304 21.6957 23.0027 21.7952 23.0605 21.9052C23.0809 21.9462 25.2016 26.0172 28.971 29.7857C31.3683 32.1827 33.8946 33.9221 36.4791 34.9548C37.0748 35.195 37.3748 35.9057 37.1395 36.4944Z" fill="#0B714C"/>
<path d="M29.0008 0.5C13.2605 0.5 0.5 13.2607 0.5 29.0001C0.5 44.7406 13.2605 57.5 29.0008 57.5C44.7421 57.5 57.5007 44.7406 57.5007 29.0001C57.5007 13.2607 44.7421 0.5 29.0008 0.5ZM38.4719 6.11833C38.5748 5.86924 38.8605 5.7526 39.1083 5.8536C40.6516 6.49088 42.1396 7.28582 43.5343 8.21562C43.7571 8.36464 43.8182 8.66801 43.6695 8.89154C43.574 9.03301 43.4208 9.10918 43.2626 9.10918C43.1702 9.10918 43.0767 9.0825 42.993 9.02731C41.6537 8.13228 40.22 7.36769 38.7367 6.75525C38.4872 6.65277 38.3691 6.3678 38.4719 6.11833ZM29.3138 3.92446H29.3404C31.0091 3.92446 32.6799 4.08636 34.3051 4.405C34.5691 4.45688 34.7413 4.71315 34.69 4.97752C34.6444 5.21098 34.4405 5.37196 34.2117 5.37196C34.1813 5.37196 34.1487 5.36902 34.1175 5.36276C32.5541 5.05553 30.9471 4.89989 29.3414 4.89989C29.0713 4.89989 28.8397 4.68133 28.8397 4.41217C28.8399 4.14247 29.0437 3.92446 29.3138 3.92446ZM19.5222 5.87531C21.0674 5.23324 22.6816 4.74259 24.3224 4.41677C24.584 4.36195 24.8421 4.5358 24.8949 4.80017C24.9477 5.06472 24.7759 5.32081 24.5106 5.37269C22.9354 5.68563 21.3822 6.15771 19.8964 6.77548C19.835 6.80069 19.7717 6.81265 19.7102 6.81265C19.5187 6.81265 19.3368 6.69932 19.2588 6.51222C19.1554 6.26441 19.2731 5.9787 19.5222 5.87531ZM11.2272 11.4315C12.4109 10.2474 13.7142 9.17614 15.1021 8.24542C15.3254 8.09622 15.6279 8.15491 15.7789 8.37936C15.9276 8.6027 15.8691 8.90625 15.6446 9.05619C14.3101 9.95067 13.0563 10.9818 11.917 12.1212C11.8217 12.217 11.6979 12.2636 11.5716 12.2636C11.4478 12.2636 11.3222 12.2159 11.2272 12.1212C11.037 11.9322 11.037 11.6226 11.2272 11.4315ZM5.67846 19.7327C6.31776 18.1899 7.11455 16.7019 8.04618 15.3102C8.19538 15.0857 8.49784 15.0272 8.7221 15.1755C8.94544 15.3245 9.00597 15.6279 8.85603 15.8514C7.96063 17.1907 7.19476 18.6222 6.58029 20.1058C6.50302 20.293 6.3196 20.4069 6.12974 20.4069C6.06627 20.4069 6.00335 20.3955 5.94301 20.3703C5.69336 20.2678 5.57525 19.9819 5.67846 19.7327ZM3.73865 29.6317V29.5268C3.73865 27.8482 3.90257 26.1693 4.22544 24.5356C4.27843 24.2713 4.5336 24.1002 4.79796 24.1513C5.06233 24.2037 5.23435 24.4604 5.18228 24.7238C4.87211 26.2953 4.71407 27.9119 4.71407 29.5261V29.6319C4.71407 29.9005 4.49643 30.1194 4.22636 30.1194C3.95721 30.1192 3.73865 29.9023 3.73865 29.6317ZM6.35768 39.6799C6.29716 39.7067 6.23203 39.718 6.16966 39.718C5.97907 39.718 5.79767 39.6057 5.71948 39.4188C5.07319 37.8755 4.57628 36.2639 4.24476 34.6234C4.19104 34.3587 4.36287 34.1013 4.62724 34.0481C4.89731 33.9957 5.14788 34.1662 5.2016 34.4289C5.52079 36.0065 5.99765 37.5576 6.61911 39.0417C6.7236 39.2893 6.60641 39.5752 6.35768 39.6799ZM11.9931 47.6926C11.8973 47.7886 11.7716 47.8363 11.6458 47.8363C11.522 47.8363 11.3982 47.7907 11.3025 47.6954C10.1137 46.5159 9.03743 45.2156 8.10395 43.8314C7.95346 43.6084 8.01196 43.3047 8.23531 43.1549C8.46067 43.0046 8.7622 43.0626 8.91269 43.2865C9.81103 44.6183 10.8461 45.8691 11.9893 47.0036C12.1823 47.1933 12.1835 47.5029 11.9931 47.6926ZM20.2585 52.954C20.1814 53.1417 19.9989 53.2561 19.807 53.2561C19.7465 53.2561 19.6832 53.2438 19.6217 53.219C18.0762 52.5846 16.5847 51.7928 15.1896 50.866C14.9663 50.7173 14.9049 50.4145 15.0544 50.1895C15.2027 49.9656 15.5041 49.9056 15.7303 50.0533C17.0717 50.9451 18.505 51.7062 19.9915 52.3169C20.241 52.4185 20.3609 52.7044 20.2585 52.954ZM29.4205 55.1279V54.6402L29.3491 55.1279C27.6876 55.1279 26.0363 54.9687 24.4287 54.6573C24.1653 54.6048 23.9918 54.3495 24.0433 54.0857C24.0952 53.8209 24.3478 53.6474 24.6158 53.6999C26.1601 53.9999 27.7513 54.1523 29.3423 54.1523C29.6105 54.1523 29.869 54.3714 29.869 54.64C29.8683 54.9088 29.6896 55.1279 29.4205 55.1279ZM39.2084 53.1579C37.665 53.8038 36.0523 54.297 34.4109 54.6267C34.3794 54.6333 34.3469 54.6363 34.3147 54.6363C34.0871 54.6363 33.8831 54.4762 33.8373 54.2457C33.783 53.981 33.9556 53.7236 34.2194 53.6702C35.7959 53.354 37.3497 52.8777 38.8319 52.2584C39.0807 52.1547 39.3664 52.2698 39.4703 52.5204C39.5743 52.7682 39.4569 53.0541 39.2084 53.1579ZM47.4904 47.583C46.3112 48.7679 45.0099 49.8434 43.6237 50.7771C43.54 50.8334 43.4445 50.861 43.3522 50.861C43.195 50.861 43.0407 50.7857 42.9463 50.6446C42.7969 50.4217 42.8549 50.1188 43.0788 49.9682C44.4124 49.0698 45.6643 48.0363 46.7989 46.8951C46.9884 46.7045 47.298 46.7025 47.4886 46.8931C47.6801 47.0829 47.6801 47.3905 47.4904 47.583ZM29.0008 49.4854C17.6869 49.4854 8.5155 40.3144 8.5155 28.9999C8.5155 17.6865 17.6871 8.51439 29.0008 8.51439C40.3144 8.51439 49.4863 17.6863 49.4863 28.9999C49.4863 40.3144 40.3144 49.4854 29.0008 49.4854ZM53.0234 39.2694C52.388 40.8137 51.5943 42.3015 50.6656 43.6962C50.5703 43.8391 50.4171 43.9144 50.2588 43.9144C50.1665 43.9144 50.073 43.8886 49.9912 43.8325C49.7664 43.6831 49.7055 43.381 49.8541 43.1571C50.7467 41.814 51.5097 40.3812 52.1214 38.8971C52.2242 38.6493 52.5099 38.5312 52.7577 38.6323C53.0072 38.735 53.1253 39.0207 53.0234 39.2694ZM54.943 29.4735V29.5259C54.943 31.1872 54.7829 32.8488 54.4667 34.4633C54.4229 34.6977 54.2172 34.8578 53.9894 34.8578C53.9578 34.8578 53.9274 34.8559 53.8949 34.8493C53.6311 34.7978 53.4587 34.5415 53.51 34.2777C53.8128 32.722 53.9674 31.1255 53.9674 29.5261C53.9674 29.2564 54.1863 29.0126 54.4549 29.0126C54.7248 29.0124 54.943 29.2039 54.943 29.4735ZM52.3442 19.4208C52.5938 19.3174 52.8795 19.4346 52.9816 19.6834C53.6255 21.2276 54.118 22.8418 54.4448 24.4817C54.499 24.7461 54.3265 25.0027 54.0628 25.0552C54.0305 25.0623 53.9979 25.0651 53.9657 25.0651C53.7391 25.0651 53.535 24.9051 53.4874 24.6727C53.173 23.0957 52.6996 21.5433 52.0822 20.0587C51.9783 19.8099 52.0954 19.5242 52.3442 19.4208ZM50.4732 15.9423C50.3895 15.9989 50.2951 16.0253 50.2026 16.0253C50.0445 16.0253 49.8911 15.9489 49.7969 15.8095C48.8995 14.4753 47.8668 13.2226 46.7273 12.086C46.5369 11.896 46.5369 11.5878 46.7264 11.3963C46.9179 11.2063 47.2266 11.2063 47.4161 11.3954C48.602 12.5767 49.6747 13.8788 50.6066 15.2664C50.757 15.4884 50.6962 15.7923 50.4732 15.9423Z" fill="#0B714C"/>
</svg>
