<svg width="65" height="65" viewBox="0 0 65 65" fill="none" xmlns="http://www.w3.org/2000/svg">
<g id="calender-svgrepo-com 1">
<path id="Vector" d="M5.41675 51.4581C5.41675 56.0623 8.93758 59.5831 13.5417 59.5831H51.4584C56.0626 59.5831 59.5834 56.0623 59.5834 51.4581V29.7915H5.41675V51.4581ZM51.4584 10.8332H46.0417V8.12484C46.0417 6.49984 44.9584 5.4165 43.3334 5.4165C41.7084 5.4165 40.6251 6.49984 40.6251 8.12484V10.8332H24.3751V8.12484C24.3751 6.49984 23.2917 5.4165 21.6667 5.4165C20.0417 5.4165 18.9584 6.49984 18.9584 8.12484V10.8332H13.5417C8.93758 10.8332 5.41675 14.354 5.41675 18.9582V24.3748H59.5834V18.9582C59.5834 14.354 56.0626 10.8332 51.4584 10.8332Z" fill="#F8FBFA"/>
</g>
</svg>
