<svg width="49" height="49" viewBox="0 0 49 49" fill="none" xmlns="http://www.w3.org/2000/svg">
<path d="M32.6056 2.327C32.8135 1.58495 32.3805 0.814837 31.6385 0.606915C30.8964 0.398981 30.1263 0.831952 29.9184 1.574L23.9843 22.7509L14.088 25.524C15.0559 23.0257 14.5319 20.0822 12.5156 18.0658C9.79099 15.3413 5.3735 15.3413 2.64901 18.0658C-0.0756082 20.7905 -0.0755685 25.2078 2.64901 27.9324C4.52084 29.8042 7.19161 30.3901 9.56357 29.69L23.1029 25.8961L19.309 39.4352C18.6088 41.8073 19.1947 44.4781 21.0666 46.35C23.7912 49.0746 28.2085 49.0746 30.9332 46.35C33.6576 43.6255 33.6578 39.208 30.9332 36.4834C28.9168 34.4671 25.9734 33.943 23.475 34.911L26.2481 25.0147L47.425 19.0806C48.1671 18.8727 48.6 18.1025 48.3921 17.3605C48.1841 16.6185 47.414 16.1854 46.6719 16.3933L27.1294 21.8696L32.6056 2.327Z" fill="#0B714C"/>
</svg>
