<svg width="38" height="38" viewBox="0 0 38 38" fill="none" xmlns="http://www.w3.org/2000/svg">
<path d="M28.5009 0.759194C29.3126 0.423025 30.1824 0.25 31.0609 0.25C31.9393 0.25 32.8091 0.423025 33.6208 0.759194C34.4323 1.09536 35.1697 1.58809 35.7909 2.20924C36.4121 2.83039 36.9049 3.56781 37.2411 4.37941C37.5771 5.19098 37.7501 6.06083 37.7501 6.93927C37.7501 7.81771 37.5771 8.68756 37.2411 9.49915C36.9049 10.3107 36.4121 11.0481 35.7909 11.6693L34.8193 12.6408L25.3594 3.18078L26.3308 2.20924C26.952 1.58809 27.6894 1.09536 28.5009 0.759194Z" fill="#0B714C"/>
<path d="M22.7076 5.8324L3.35237 25.1876C3.12163 25.4183 2.95512 25.7053 2.86926 26.0201L0.316109 35.3816C0.139072 36.0308 0.323441 36.7251 0.799222 37.2008C1.275 37.6766 1.96924 37.861 2.61838 37.684L11.9799 35.1308C12.2948 35.0449 12.5817 34.8784 12.8124 34.6476L32.1676 15.2925L22.7076 5.8324Z" fill="#0B714C"/>
</svg>
