<svg width="60" height="60" viewBox="0 0 60 60" fill="none" xmlns="http://www.w3.org/2000/svg">
<g id="dress-svgrepo-com 1">
<g id="Group">
<g id="Group_2">
<path id="Vector" d="M37.2726 4.26807L36.7966 6.21208C35.7246 9.84408 30.4196 10.9371 30.1945 10.9801C30.1306 10.9931 30.0655 11.0001 29.9995 11.0001C29.9345 11.0001 29.8685 10.9931 29.8045 10.9801C29.5794 10.9371 24.2755 9.84408 23.2155 6.25807L22.6765 4.28105C20.5475 4.81909 18.0936 5.89505 17.9996 9.47403C17.9625 10.916 18.6105 11.6511 19.2385 12.362C20.2457 13.5019 21.7197 15.1929 21.9617 22H27.2778C27.6247 21.405 28.2628 21 28.9997 21H30.9997C31.7367 21 32.3747 21.405 32.7216 22H38.0377C38.2797 15.193 39.7537 13.5021 40.7606 12.362C41.3886 11.651 42.0366 10.916 41.9996 9.47403C41.9046 5.86598 39.4126 4.80205 37.2726 4.26807Z" fill="#F8FBFA"/>
</g>
</g>
<g id="Group_3">
<g id="Group_4">
<path id="Vector_2" d="M37.9997 24H32.9998V26H38.0778C38.0368 25.345 37.9997 24.687 37.9997 24Z" fill="#F8FBFA"/>
</g>
</g>
<g id="Group_5">
<g id="Group_6">
<path id="Vector_3" d="M32.9483 0.683986C32.8124 0.274976 32.4303 0 31.9994 0H27.9994C27.5694 0 27.1874 0.274976 27.0514 0.683986C27.0434 0.706027 26.3874 2.61502 24.5784 3.65595L25.1394 5.71195C25.7023 7.61403 28.6694 8.67105 29.9983 8.977C31.3273 8.667 34.3004 7.60498 34.8663 5.69099L35.3713 3.62402C33.6193 2.57904 32.9543 0.701976 32.9483 0.683986Z" fill="#F8FBFA"/>
</g>
</g>
<g id="Group_7">
<g id="Group_8">
<path id="Vector_4" d="M31 23H29V27H31V23Z" fill="#F8FBFA"/>
</g>
</g>
<g id="Group_9">
<g id="Group_10">
<path id="Vector_5" d="M42.2742 41C40.6042 37.03 38.9082 32.9371 38.2742 28H32.7211C32.3741 28.595 31.7361 28.9999 31.0002 28.9999H29.0001C28.2631 28.9999 27.6251 28.595 27.2781 28H21.7251C21.0911 32.9369 19.395 37.03 17.725 41C15.809 45.555 14 49.857 14 55C14 55.352 14.184 55.6769 14.485 55.857C19.581 58.9149 22.69 60 30 60C37.309 60 40.4189 58.9149 45.514 55.857C45.8149 55.6769 46 55.3519 46 55C46.0002 49.857 44.1902 45.555 42.2742 41Z" fill="#F8FBFA"/>
</g>
</g>
<g id="Group_11">
<g id="Group_12">
<path id="Vector_6" d="M21.9997 24C21.9997 24.687 21.9626 25.345 21.9216 26H26.9996V24H21.9997Z" fill="#F8FBFA"/>
</g>
</g>
</g>
</svg>
