<svg width="36" height="46" viewBox="0 0 36 46" fill="none" xmlns="http://www.w3.org/2000/svg">
<path d="M1.28025 20.8714V33.6714C1.31835 35.881 1.71835 37.7286 2.48025 39.2143C3.24216 40.7 4.40406 41.9 5.96597 42.8143C7.18502 43.6143 8.82311 44.2619 10.8803 44.7571C12.9374 45.2524 15.166 45.5 17.566 45.5H17.6231C20.1374 45.5 22.4517 45.2333 24.566 44.7C26.6803 44.1667 28.3469 43.4619 29.566 42.5857C31.0136 41.6714 32.0898 40.4905 32.7945 39.0429C33.4993 37.5952 33.8517 35.8048 33.8517 33.6714V20.8714C33.8517 19.9952 33.9279 19.2333 34.0803 18.5857C34.1564 18.1286 34.2707 17.7476 34.4231 17.4429L34.5945 17.1C34.8612 16.6429 34.9945 16.1381 34.9945 15.5857C34.9945 15.0333 34.8422 14.5476 34.5374 14.1286L34.3088 13.7286C33.2803 12.2048 31.985 10.9476 30.4231 9.95714C30.9564 9.27143 31.566 8.6619 32.2517 8.12857L32.366 8.01429C32.8993 7.74762 33.4136 7.44286 33.9088 7.1C34.7469 6.49048 35.2803 5.95714 35.5088 5.5C35.9279 4.58571 35.9469 3.15714 35.566 1.21429C35.5279 0.871429 35.3184 0.642857 34.9374 0.528571C34.6707 0.490476 34.4231 0.490476 34.1945 0.528571H34.0803C33.1279 0.642857 32.3469 0.795238 31.7374 0.985714C30.6707 1.36667 29.9279 1.91905 29.5088 2.64286C29.3564 2.87143 29.1469 3.27143 28.8803 3.84286C28.5374 4.64286 28.2326 5.27143 27.966 5.72857C27.5088 6.52857 26.9945 7.27143 26.4231 7.95714C24.5184 7.23333 22.5374 6.77619 20.4803 6.58571C19.4136 6.47143 18.4422 6.43333 17.566 6.47143C16.385 6.39524 14.9945 6.49048 13.3945 6.75714C10.4231 7.21429 7.71835 8.14762 5.28025 9.55714C3.48978 10.6238 2.00406 12.0143 0.82311 13.7286L0.594539 14.0714C0.327872 14.5286 0.185015 15.0333 0.165967 15.5857C0.14692 16.1381 0.270729 16.6429 0.537396 17.1L0.765967 17.4429C0.880253 17.7476 0.994539 18.1286 1.10882 18.5857C1.22311 19.2333 1.28025 19.9952 1.28025 20.8714ZM17.6231 10.8714C19.1088 10.8714 20.5945 10.9857 22.0803 11.2143L19.2231 12.4143C18.9945 12.4905 18.8326 12.6238 18.7374 12.8143C18.6422 13.0048 18.6136 13.2143 18.6517 13.4429C18.8422 14.1667 19.1279 14.8333 19.5088 15.4429C20.0041 16.281 20.6707 16.8524 21.5088 17.1571C22.9564 17.7286 24.7088 17.9762 26.766 17.9C26.9945 17.9 27.185 17.8238 27.3374 17.6714C27.4898 17.519 27.585 17.3286 27.6231 17.1C27.7755 15.7667 28.0993 14.4524 28.5945 13.1571C30.4612 14.1857 31.3945 15.3476 31.3945 16.6429C31.3945 17.481 30.9755 18.281 30.1374 19.0429C29.2993 19.8048 28.1374 20.4524 26.6517 20.9857V31.2714C26.6517 31.7667 26.4898 32.1762 26.166 32.5C25.8422 32.8238 25.4517 32.9857 24.9945 32.9857C24.5374 32.9857 24.1469 32.8238 23.8231 32.5C23.4993 32.1762 23.3374 31.7667 23.3374 31.2714V21.8429C21.4326 22.2238 19.5279 22.3952 17.6231 22.3571C15.1088 22.3571 12.7945 22.1 10.6803 21.5857C8.56597 21.0714 6.8993 20.3762 5.68025 19.5C4.46121 18.6238 3.85168 17.6714 3.85168 16.6429C3.85168 15.6143 4.46121 14.6619 5.68025 13.7857C6.8993 12.9095 8.56597 12.2048 10.6803 11.6714C12.7945 11.1381 15.1088 10.8714 17.6231 10.8714Z" fill="#0B714C"/>
</svg>
