<svg width="40" height="40" viewBox="0 0 40 40" fill="none" xmlns="http://www.w3.org/2000/svg">
<path d="M15.7247 7.5128L14.7935 8.44398C12.7394 10.4977 9.39743 10.498 7.34336 8.44398C5.72421 6.82483 5.33382 4.36708 6.37218 2.32855C6.70234 1.68042 6.44445 0.887451 5.79632 0.557293C5.14835 0.226979 4.35522 0.484949 4.02506 1.13316C2.4674 4.19145 3.05248 7.87804 5.48101 10.3066C8.56212 13.3877 13.5753 13.3875 16.656 10.3066L17.5872 9.37539C18.5917 8.37101 19.7723 7.64749 21.0305 7.20436C21.9511 6.05099 22.8009 4.99193 23.5544 4.05966C20.7055 4.19122 17.8954 5.34216 15.7247 7.5128Z" fill="#0B714C"/>
<path d="M37.6712 33.6281C35.6324 34.6661 33.175 34.2756 31.556 32.6566C30.561 31.6617 30.0131 30.3388 30.0131 28.9317C30.0131 27.5245 30.561 26.2016 31.556 25.2066L32.4872 24.2754C35.4652 21.2974 36.5236 17.116 35.6635 13.2822C36.9314 12.2468 37.7884 11.5243 38.0746 11.238C40.642 8.67053 40.642 4.49301 38.0746 1.92558C35.5072 -0.641859 31.3296 -0.641859 28.7621 1.92558C26.6714 4.01606 1.35488 36.492 0.278231 37.8734C-0.130365 38.3976 -0.0842705 39.1443 0.38581 39.6142C0.64128 39.8698 0.978548 40 1.31738 40C1.60175 40 1.88738 39.9083 2.1266 39.7218C3.21754 38.8716 23.6973 22.9067 33.2943 15.1985C33.4883 17.7853 32.5987 20.439 30.6248 22.4129L29.6935 23.3441C28.201 24.8366 27.3792 26.8209 27.3792 28.9317C27.3792 31.0423 28.2011 33.0267 29.6936 34.5191C31.2159 36.0415 33.232 36.8394 35.2783 36.8393C36.4963 36.8392 37.7254 36.5564 38.8664 35.9752C39.5146 35.6452 39.7724 34.8522 39.4423 34.204C39.1123 33.5558 38.3191 33.2981 37.6712 33.6281ZM32.4872 7.51279L32.4872 7.51272L30.6246 9.37523L30.6247 9.3753C30.9409 9.69148 31.2286 10.0254 31.4891 10.3733L30.6246 11.2377C30.3675 11.4949 30.0303 11.6235 29.6935 11.6235C29.3564 11.6235 29.0193 11.495 28.7623 11.2377C28.248 10.7235 28.248 9.8896 28.7623 9.37523L32.4873 5.65028C33.0016 5.13598 33.8355 5.13598 34.3498 5.65028C34.8641 6.1645 34.8641 6.99842 34.3498 7.51279L33.3665 8.49608C33.0945 8.15623 32.802 7.82756 32.4872 7.51279Z" fill="#0B714C"/>
</svg>
