<svg width="48" height="46" viewBox="0 0 48 46" fill="none" xmlns="http://www.w3.org/2000/svg">
<path d="M14.7892 0.500003C12.4325 0.502342 10.1476 1.81924 9.23439 4.19459L0.723912 37.3706C-0.565119 46.9864 8.96688 46.397 14.7562 44.0223C23.038 40.6255 33.2401 41.0509 41.532 43.1822L42.188 41.4308C41.4374 41.1625 40.6284 40.8218 39.9247 40.6132C39.9728 40.1693 40.0218 39.7262 40.0709 39.2833L42.4142 39.7022L42.7431 37.8612C41.9219 37.7146 41.1007 37.5677 40.2795 37.4209C40.342 36.8714 40.4054 36.3225 40.4697 35.7743L42.721 36.1077L42.9949 34.2579C42.2272 34.144 41.4593 34.0303 40.6914 33.9167C40.7378 33.5337 40.784 33.1507 40.8313 32.7683C41.6058 32.8794 42.3805 32.9903 43.1552 33.1012L43.4203 31.25L41.0642 30.9127C41.111 30.5473 41.1954 29.8968 41.2432 29.5317L43.5604 29.7911L43.7684 28.004C43.0089 27.9192 42.2493 27.834 41.4898 27.7489C41.5694 27.1623 41.6848 26.6115 41.7673 26.0255C42.5474 26.1394 43.3277 26.2538 44.1079 26.3681L44.3429 24.6248C43.5614 24.5102 42.7799 24.396 41.9984 24.2816C42.0789 23.7308 42.1257 23.2514 42.209 22.7008C42.9285 22.8293 43.6482 22.9579 44.3677 23.0863L44.6964 21.2452L42.4939 20.852C42.5688 20.3764 42.6437 19.901 42.7207 19.4254C43.4305 19.5955 44.1402 19.7658 44.8498 19.9362L45.2864 18.1177C44.5336 17.9369 43.7807 17.7562 43.0279 17.5756C43.0992 17.1524 43.1715 16.7293 43.2448 16.3065C43.9547 16.4675 44.6648 16.6284 45.3749 16.7892L45.7882 14.9655C45.0487 14.7976 44.309 14.63 43.5693 14.4624C43.6476 14.0284 43.727 13.5943 43.8075 13.1599L45.9173 13.6839L46.368 11.869L44.1556 11.3192C44.231 10.9279 44.3076 10.5364 44.3849 10.1446L46.4477 10.6546L46.8965 8.83909L44.7547 8.30946C44.8408 7.8897 44.928 7.47015 45.0162 7.05084C45.8692 7.29597 46.3517 7.29129 47.1939 7.5584L47.3943 5.95832C38.8698 3.23481 29.1619 2.57936 22.5564 5.30196C20.0809 16.9011 18.7619 27.8216 15.6365 39.7466C15.29 41.0689 14.1647 41.9732 12.8554 42.6012C10.1091 43.7819 6.34233 44.0026 4.24731 42.1017C3.1314 41.05 2.60218 39.3518 2.97923 37.2623C3.21348 35.9642 4.0862 35.026 5.09836 34.5792C7.10713 33.8597 9.52214 34.1469 11.0886 35.3879C12.3563 36.334 12.3416 39.2818 10.6938 38.6244C9.71336 37.9968 10.494 37.419 9.81752 36.8568C8.63763 36.1013 7.13021 35.751 5.85349 36.2903C5.28755 36.54 4.94955 36.8738 4.81946 37.5945C4.52042 39.2514 4.88913 40.1369 5.52994 40.7408C7.39467 42.1129 10.1355 41.8083 12.0466 40.9149C13.0683 40.4247 13.7022 39.7517 13.8277 39.2726C16.9339 27.421 18.2465 16.4759 20.7741 4.69319C19.5743 1.81019 17.146 0.497765 14.7892 0.500003Z" fill="#0B714C"/>
</svg>
