<svg width="50" height="34" viewBox="0 0 50 34" fill="none" xmlns="http://www.w3.org/2000/svg">
<path d="M48.6377 1.9171C46.8213 0.100704 43.8763 0.100704 42.06 1.9171C40.9541 3.02303 40.5228 4.54711 40.7636 5.98025L38.5811 7.78525C38.1812 7.71676 37.9378 7.51222 37.4321 7.08432C36.5712 6.35583 35.2701 5.25513 32.9065 5.25513C30.5429 5.25513 29.2419 6.35594 28.3809 7.08432C27.7365 7.62955 27.5194 7.81327 26.8595 7.81327C26.1999 7.81327 25.9829 7.62967 25.3386 7.08443C24.4778 6.35595 23.1767 5.25501 20.8134 5.25501C18.4499 5.25501 17.1487 6.35594 16.2879 7.08432C15.6437 7.62943 15.4266 7.81316 14.767 7.81316C14.1073 7.81316 13.8903 7.62955 13.2461 7.08432C12.4588 6.41804 11.3004 5.4428 9.30056 5.28071C9.31998 4.06559 8.86731 2.8442 7.9401 1.91699C6.1237 0.100588 3.1787 0.100588 1.3623 1.91699C-0.454099 3.73338 -0.454099 6.67839 1.3623 8.49478C2.69009 9.82258 4.62067 10.1785 6.27288 9.56502L21.3509 22.0349L11.89 29.8593L14.8542 33.4435L25 25.0528L35.1458 33.4437L38.11 29.8595L28.6491 22.035L43.7271 9.56514C45.3793 10.1786 47.3099 9.82281 48.6377 8.4949C50.4541 6.67839 50.4541 3.7335 48.6377 1.9171ZM16.7263 12.1746C17.9158 11.7982 18.7065 11.1307 19.2923 10.635C19.9366 10.0899 20.1536 9.90618 20.8134 9.90618C21.473 9.90618 21.69 10.0898 22.3342 10.635C23.195 11.3635 24.496 12.4643 26.8595 12.4643C29.2231 12.4643 30.5242 11.3635 31.3851 10.6351C32.0295 10.0899 32.2466 9.90618 32.9065 9.90618C33.5664 9.90618 33.7835 10.0898 34.4279 10.6351C34.5377 10.7279 34.6548 10.8269 34.78 10.9289L25 19.0171L16.7263 12.1746Z" fill="#0B714C"/>
</svg>
