<svg width="46" height="36" viewBox="0 0 46 36" fill="none" xmlns="http://www.w3.org/2000/svg">
<path d="M45.297 22.6257C45.0588 22.34 40.9818 17.5363 34.0305 14.7091C33.5536 11.3462 32.2279 8.28257 30.1806 5.88572C27.1711 2.36233 22.8465 0.5 17.6738 0.5C7.48588 0.5 0.875453 9.59059 0.599043 9.97753C0.247158 10.4701 0.105376 11.0824 0.204886 11.6795C0.304397 12.2767 0.63705 12.8098 1.12966 13.1617C1.62228 13.5136 2.2345 13.6554 2.83166 13.5559C3.42881 13.4564 3.96197 13.1237 4.31385 12.6311C4.36791 12.5554 9.80898 5.06522 17.6738 5.06522C21.4696 5.06522 24.5941 6.37426 26.7094 8.85071C27.778 10.124 28.5714 11.6049 29.0393 13.2C27.3017 12.8498 25.5334 12.6735 23.7608 12.6739C18.6221 12.6739 14.2913 14.0309 11.2367 16.5981C8.48489 18.9106 6.90668 22.1428 6.90668 25.4658C6.90668 30.4522 10.6051 35.5 17.6738 35.5C22.7081 35.5 26.995 33.5055 30.0714 29.7322C32.2745 27.0298 33.6941 23.492 34.1048 19.7786C36.9941 21.2217 39.5978 23.1765 41.7898 25.5482C41.9817 25.7785 42.2171 25.9687 42.4825 26.1081C42.7479 26.2474 43.0382 26.3331 43.3367 26.3602C43.6352 26.3873 43.9362 26.3554 44.2224 26.2662C44.5086 26.1771 44.7744 26.0324 45.0047 25.8405C45.235 25.6486 45.4252 25.4133 45.5645 25.1478C45.7038 24.8824 45.7895 24.5922 45.8166 24.2936C45.8438 23.9951 45.8119 23.6942 45.7227 23.408C45.6335 23.1218 45.4889 22.856 45.297 22.6257ZM17.6738 30.9348C13.3897 30.9348 11.4719 28.188 11.4719 25.4658C11.4719 21.5036 15.3175 17.2391 23.7608 17.2391C25.7533 17.2412 27.7363 17.514 29.6553 18.0502C29.4523 24.5357 25.3455 30.9348 17.6738 30.9348Z" fill="#0B714C"/>
</svg>
