<svg width="46" height="46" viewBox="0 0 46 46" fill="none" xmlns="http://www.w3.org/2000/svg">
<path d="M39.4423 7.42308H6.77404C5.11006 7.42308 3.51423 8.08409 2.33762 9.2607C1.16101 10.4373 0.5 12.0331 0.5 13.6971V30.7885C0.5 32.3951 1.13822 33.9359 2.27426 35.0719C3.4103 36.2079 4.95109 36.8462 6.55769 36.8462H7.42308V41.1385C7.42308 42.2952 7.8826 43.4046 8.70054 44.2225C9.51849 45.0405 10.6279 45.5 11.7846 45.5H34.2154C35.3721 45.5 36.4815 45.0405 37.2995 44.2225C38.1174 43.4046 38.5769 42.2952 38.5769 41.1385V36.8462H39.4423C41.0489 36.8462 42.5897 36.2079 43.7257 35.0719C44.8618 33.9359 45.5 32.3951 45.5 30.7885V13.4808C45.5 11.8742 44.8618 10.3334 43.7257 9.19733C42.5897 8.0613 41.0489 7.42308 39.4423 7.42308ZM35.1154 41.1385C35.1145 41.3769 35.0194 41.6053 34.8508 41.7739C34.6822 41.9425 34.4538 42.0376 34.2154 42.0385H11.7846C11.5462 42.0376 11.3178 41.9425 11.1492 41.7739C10.9806 41.6053 10.8855 41.3769 10.8846 41.1385V23.9C10.8855 23.6616 10.9806 23.4331 11.1492 23.2646C11.3178 23.096 11.5462 23.0009 11.7846 23H34.2154C34.4538 23.0009 34.6822 23.096 34.8508 23.2646C35.0194 23.4331 35.1145 23.6616 35.1154 23.9V41.1385ZM37.9279 17.799C37.3984 17.8416 36.8686 17.7207 36.4099 17.4527C35.9513 17.1846 35.5859 16.7823 35.3631 16.3001C35.1403 15.8179 35.0708 15.2789 35.164 14.7559C35.2571 14.2329 35.5085 13.7511 35.8841 13.3755C36.2598 12.9998 36.7416 12.7485 37.2646 12.6553C37.7875 12.5621 38.3265 12.6317 38.8088 12.8545C39.291 13.0773 39.6933 13.4426 39.9613 13.9013C40.2294 14.3599 40.3503 14.8897 40.3077 15.4192C40.2583 16.0339 39.9917 16.6109 39.5556 17.047C39.1196 17.483 38.5426 17.7496 37.9279 17.799Z" fill="#0B714C"/>
<path d="M32.5192 0.5H13.4808C12.0248 0.502168 10.6181 1.02784 9.51751 1.98108C8.41692 2.93431 7.69582 4.25153 7.48582 5.69231H38.5142C38.3042 4.25153 37.5831 2.93431 36.4825 1.98108C35.3819 1.02784 33.9752 0.502168 32.5192 0.5Z" fill="#0B714C"/>
</svg>
