<svg width="44" height="40" viewBox="0 0 44 40" fill="none" xmlns="http://www.w3.org/2000/svg">
<path fill-rule="evenodd" clip-rule="evenodd" d="M43.2261 5.58497H39.6654C38.0111 3.80464 34.8392 2.5686 32.7238 2.5686V0H30.1552V2.5686H8.81806C5.858 2.5686 3.45563 2.5686 3.45563 5.24982V10.2771C3.45563 13.2372 5.84459 15.6395 8.78856 15.6395V18.6559H6.02423V21.3371H11.3867V26.6995H13.9553V15.6395H14.0974C15.438 15.6395 16.0439 14.5268 16.3415 13.0736L16.7142 10.7463C16.7652 9.74353 16.6633 11.43 16.7142 10.6122H27.4739V29.4934H6.13684C3.17678 29.4934 0.774414 31.8957 0.774414 34.8558V37.3118C0.774414 40.2718 3.17678 39.993 6.13684 39.993H35.405C38.365 39.993 40.7674 40.2718 40.7674 37.3118V37.2018V15.6395H43.2261V5.58497Z" fill="#0B714C"/>
</svg>
