<svg width="60" height="60" viewBox="0 0 60 60" fill="none" xmlns="http://www.w3.org/2000/svg">
<g id="sewing-machine-svgrepo-com 1">
<g id="Group">
<path id="Vector" fill-rule="evenodd" clip-rule="evenodd" d="M59.5589 9.26485H54.8719C52.6942 6.92132 48.5189 5.29426 45.7342 5.29426V1.91309H42.353V5.29426H14.266C10.3695 5.29426 7.20715 5.29426 7.20715 8.82367V15.4413C7.20715 19.3378 10.3519 22.5001 14.2271 22.5001V26.4707H10.5883V30.0001H17.6471V37.059H21.0283V22.5001H21.2154C22.9801 22.5001 23.7777 21.0354 24.1695 19.1225L24.6601 16.059C24.7271 14.739 24.593 16.959 24.6601 15.8825H38.8236V40.7366H10.7366C6.84009 40.7366 3.67773 43.899 3.67773 47.7954V51.0284C3.67773 54.9249 6.84009 54.5578 10.7366 54.5578H49.2636C53.1601 54.5578 56.3224 54.9249 56.3224 51.0284V50.8837V22.5001H59.5589V9.26485Z" fill="#F8FBFA"/>
</g>
</g>
</svg>
