<svg width="40" height="36" viewBox="0 0 40 36" fill="none" xmlns="http://www.w3.org/2000/svg">
<path d="M8.0457 3.12228C7.99246 1.43458 9.34064 0 11.0642 0H20.9998C22.6382 0 23.9794 1.30804 24.0122 2.95198C24.0826 6.4876 24.5472 19.0916 27.5732 32H29.5738C27.6498 23.7928 26.7612 15.7086 26.351 10H28.8674C30.6794 10 31.9782 11.5454 31.929 13.1901C31.8592 15.5128 32.0494 22.0574 35.4216 32H38C39.1046 32 40 32.8954 40 34C40 35.1046 39.1046 36 38 36H2C0.89544 36 0 35.1046 0 34C0 32.8954 0.89544 32 2 32H4.5139C8.22468 19.2324 8.15954 6.7302 8.0457 3.12228Z" fill="#0B714C"/>
</svg>
