<svg width="40" height="40" viewBox="0 0 40 40" fill="none" xmlns="http://www.w3.org/2000/svg">
<path fill-rule="evenodd" clip-rule="evenodd" d="M17.5052 0.20183C16.3974 -0.161224 15.1835 -0.0302233 14.1822 0.56046L5.94202 5.42148C4.7372 6.13224 4 7.41237 4 8.79382V35.2098H2C0.89544 35.2098 0 36.0902 0 37.1762C0 38.2623 0.89544 39.1426 2 39.1426H38C39.1046 39.1426 40 38.2623 40 37.1762C40 36.0902 39.1046 35.2098 38 35.2098H36V9.09776C36 7.40498 34.8982 5.90211 33.265 5.3668L17.5052 0.20183ZM14 5.25432L8 8.79382V35.2098H14V5.25432Z" fill="#F8FBFA"/>
</svg>
