<svg width="60" height="61" viewBox="0 0 60 61" fill="none" xmlns="http://www.w3.org/2000/svg">
<g id="medal-champion-award-winner-olympic-12-svgrepo-com 1">
<g id="Flat">
<g id="Color">
<path id="Vector" d="M7.74414 3.0625L24.3191 31.7688L35.6816 25.2063L22.8941 3.0625H7.74414Z" fill="#212529"/>
<path id="Vector_2" d="M35.6814 25.2063L28.9221 13.4875L25.8471 18.8031C25.2985 19.2573 24.6935 19.6386 24.0471 19.9375C22.1721 20.3875 19.8846 19.8156 18.0283 20.9313L24.3189 31.8156L35.6814 25.2063Z" fill="#111315"/>
<path id="Vector_3" d="M32.4383 27.0813L27.5633 29.8938L12.0664 3.0625H18.5633L32.4383 27.0813Z" fill="#0B714C"/>
<path id="Vector_4" d="M32.4379 27.0813L26.7566 17.2375C26.3825 18.1878 25.7011 18.9855 24.821 19.5037C23.941 20.0219 22.9129 20.2307 21.9004 20.0969L27.5254 29.8938L32.4379 27.0813Z" fill="#06573A"/>
<path id="Vector_5" d="M37.1068 3.0625L24.3193 25.2063L35.6818 31.7688L52.2568 3.0625H37.1068Z" fill="#212529"/>
<path id="Vector_6" d="M35.6818 31.7688L41.9725 20.875C40.0975 19.7594 37.7912 20.3219 35.9537 19.8813C33.8818 18.9438 31.7068 16.4594 28.9037 17.2469L24.3193 25.1969L35.6818 31.7688Z" fill="#111315"/>
<path id="Vector_7" d="M47.9344 3.0625L32.4375 29.8938L27.5625 27.0813L41.4375 3.0625H47.9344Z" fill="#0B714C"/>
<path id="Vector_8" d="M32.4375 29.8938L38.0625 20.0969C37.3555 20.1325 36.6468 20.0789 35.9531 19.9375C34.8713 19.3354 33.8229 18.675 32.8125 17.9594L27.5625 27.0813L32.4375 29.8938Z" fill="#06573A"/>
<path id="Vector_9" d="M47.3908 38.2188C47.3908 36.2406 48.8627 34.0562 48.3283 32.275C47.7939 30.4937 45.1877 29.5375 44.0627 28C42.9377 26.4625 42.8439 23.8 41.2502 22.6656C39.6564 21.5312 37.1721 22.2719 35.3252 21.6813C33.4783 21.0906 31.9783 19 30.0002 19C28.0221 19 26.4096 21.1 24.6283 21.6813C22.8471 22.2625 20.2408 21.55 18.7033 22.6656C17.1658 23.7812 17.0627 26.4156 15.8908 28C14.7189 29.5844 12.2814 30.4281 11.6814 32.275C11.0814 34.1219 12.5721 36.2406 12.5721 38.2188C12.5721 40.1969 11.1002 42.3813 11.6814 44.1625C12.2627 45.9438 14.8127 46.9 15.9377 48.4375C17.0627 49.975 17.1564 52.6375 18.7502 53.7719C20.3439 54.9062 22.8283 54.1656 24.6752 54.7094C26.5221 55.2531 28.0221 57.4375 30.0002 57.4375C31.9783 57.4375 33.5908 55.3375 35.3721 54.7562C37.1533 54.175 39.7596 54.8875 41.2971 53.8187C42.8346 52.75 42.9377 50.0688 44.1096 48.4844C45.2814 46.9 47.7189 46.0562 48.3189 44.2094C48.9189 42.3625 47.3908 40.1969 47.3908 38.2188Z" fill="#FCCD1D"/>
<path id="Vector_10" d="M30 51.8125C37.5076 51.8125 43.5938 45.7264 43.5938 38.2188C43.5938 30.7111 37.5076 24.625 30 24.625C22.4924 24.625 16.4062 30.7111 16.4062 38.2188C16.4062 45.7264 22.4924 51.8125 30 51.8125Z" fill="#F9A215"/>
<path id="Vector_11" d="M31.2846 31.1875L32.7096 33.6531C32.813 33.8374 32.9556 33.9967 33.1273 34.1198C33.299 34.2429 33.4956 34.3268 33.7033 34.3656L36.5627 34.9375C36.8184 34.9817 37.0574 35.0945 37.2541 35.2638C37.4508 35.4331 37.5979 35.6526 37.6797 35.8989C37.7615 36.1452 37.7749 36.4091 37.7185 36.6625C37.6621 36.9158 37.5381 37.1491 37.3596 37.3375L35.3908 39.4187C35.2476 39.5697 35.1396 39.7507 35.0748 39.9485C35.0099 40.1463 34.9898 40.356 35.0158 40.5625L35.3533 43.375C35.3788 43.633 35.3357 43.8931 35.2284 44.1291C35.121 44.3651 34.9533 44.5686 34.742 44.7189C34.5308 44.8692 34.2837 44.9611 34.0255 44.9852C33.7674 45.0093 33.5075 44.9648 33.2721 44.8562L30.6377 43.6656C30.4433 43.5776 30.2324 43.5321 30.019 43.5321C29.8055 43.5321 29.5946 43.5776 29.4002 43.6656L26.7658 44.8562C26.5297 44.9694 26.2676 45.0176 26.0066 44.9957C25.7456 44.9738 25.4952 44.8827 25.2812 44.7317C25.0672 44.5808 24.8974 44.3755 24.7892 44.137C24.681 43.8985 24.6384 43.6354 24.6658 43.375L25.0033 40.5625C25.0294 40.356 25.0092 40.1463 24.9444 39.9485C24.8795 39.7507 24.7716 39.5697 24.6283 39.4187L22.6596 37.3375C22.4813 37.1503 22.3568 36.9185 22.2995 36.6665C22.2421 36.4144 22.2539 36.1516 22.3336 35.9057C22.4133 35.6598 22.558 35.44 22.7524 35.2696C22.9467 35.0991 23.1835 34.9844 23.4377 34.9375L26.2502 34.3844C26.4579 34.3456 26.6545 34.2616 26.8262 34.1385C26.9979 34.0154 27.1405 33.8561 27.244 33.6719L28.7158 31.1875C28.8475 30.9639 29.0353 30.7786 29.2605 30.6499C29.4858 30.5211 29.7407 30.4534 30.0002 30.4534C30.2597 30.4534 30.5146 30.5211 30.7399 30.6499C30.9651 30.7786 31.1529 30.9639 31.2846 31.1875Z" fill="#FCCD1D"/>
</g>
</g>
</g>
</svg>
